<svg width="50" height="50" viewBox="0 0 50 50" fill="none" xmlns="http://www.w3.org/2000/svg">
<path d="M27.0833 6.25V20.8333H39.5833L22.9167 43.75V29.1667H10.4167L27.0833 6.25Z" fill="#7E23D9"/>
<path fill-rule="evenodd" clip-rule="evenodd" d="M27.4699 5.06127C27.9848 5.2287 28.3333 5.70858 28.3333 6.25V19.5833H39.5833C40.0535 19.5833 40.4839 19.8471 40.6972 20.2661C40.9106 20.6851 40.8708 21.1883 40.5943 21.5685L23.9276 44.4852C23.6091 44.9231 23.045 45.1062 22.5301 44.9387C22.0152 44.7713 21.6667 44.2914 21.6667 43.75V30.4167H10.4167C9.94651 30.4167 9.51612 30.1529 9.30277 29.7339C9.08943 29.3149 9.12922 28.8117 9.40575 28.4315L26.0724 5.51479C26.3909 5.07692 26.955 4.89384 27.4699 5.06127ZM12.8714 27.9167H22.9167C23.607 27.9167 24.1667 28.4763 24.1667 29.1667V39.906L37.1286 22.0833H27.0833C26.393 22.0833 25.8333 21.5237 25.8333 20.8333V10.094L12.8714 27.9167Z" fill="#7E23D9"/>
</svg>
