<svg width="269" height="35" viewBox="0 0 269 35" fill="none" xmlns="http://www.w3.org/2000/svg">
<path d="M245.804 34.0001V0.880127H252.476V34.0001H245.804ZM248.972 34.0001V28.0961H268.7V34.0001H248.972ZM248.972 20.0801V14.4641H266.156V20.0801H248.972ZM248.972 6.78413V0.880127H268.46V6.78413H248.972Z" fill="#7E23D9"/>
<path d="M210.181 17.4401C210.181 14.7201 210.613 12.3041 211.477 10.1921C212.341 8.08005 213.509 6.30405 214.981 4.86405C216.485 3.39205 218.197 2.27205 220.117 1.50405C222.069 0.736051 224.133 0.352051 226.309 0.352051C228.357 0.352051 230.277 0.640051 232.069 1.21605C233.861 1.76005 235.621 2.60805 237.349 3.76005L233.893 9.28005C232.773 8.41605 231.589 7.74405 230.341 7.26405C229.125 6.78405 227.813 6.54405 226.405 6.54405C224.645 6.54405 223.045 6.96005 221.605 7.79205C220.197 8.59205 219.077 9.80805 218.245 11.4401C217.413 13.0401 216.997 15.0401 216.997 17.4401C216.997 19.8081 217.413 21.8401 218.245 23.5361C219.077 25.2001 220.197 26.4801 221.605 27.3761C223.045 28.2401 224.677 28.6721 226.501 28.6721C227.397 28.6721 228.325 28.5601 229.285 28.3361C230.245 28.0801 231.173 27.6961 232.069 27.1841L238.309 30.1121C236.517 31.5201 234.597 32.6081 232.549 33.3761C230.533 34.1441 228.373 34.5281 226.069 34.5281C223.925 34.5281 221.893 34.1441 219.973 33.3761C218.085 32.6081 216.405 31.5041 214.933 30.0641C213.461 28.5921 212.293 26.8001 211.429 24.6881C210.597 22.5761 210.181 20.1601 210.181 17.4401ZM225.253 21.9041V16.2881H235.333V21.9041H225.253ZM231.829 30.6401V16.2881H238.309V30.1121L231.829 30.6401Z" fill="#7E23D9"/>
<path d="M177.038 34.0001L189.326 0.880127H192.83L193.214 7.36013L183.998 34.0001H177.038ZM184.574 26.5601V21.1361H200.702V26.5601H184.574ZM191.582 7.36013L191.774 0.880127H195.662L207.95 34.0001H200.798L191.582 7.36013Z" fill="#7E23D9"/>
<path d="M152.452 6.78413V0.880127H177.844V6.78413H152.452ZM161.812 34.0001V0.880127H168.484V34.0001H161.812Z" fill="#7E23D9"/>
<path d="M122.701 30.1601L126.013 24.7361C127.421 25.9521 129.037 26.9281 130.861 27.6641C132.717 28.3681 134.589 28.7201 136.477 28.7201C137.661 28.7201 138.653 28.5761 139.453 28.2881C140.285 27.9681 140.909 27.5521 141.325 27.0401C141.773 26.5281 141.997 25.9681 141.997 25.3601C141.997 24.7841 141.805 24.2241 141.421 23.6801C141.037 23.1041 140.349 22.5441 139.357 22.0001C138.397 21.4241 137.005 20.8321 135.181 20.2241C132.525 19.3601 130.397 18.4001 128.797 17.3441C127.197 16.2561 126.045 15.0881 125.341 13.8401C124.637 12.5601 124.285 11.2161 124.285 9.80805C124.285 8.08005 124.749 6.49605 125.677 5.05605C126.637 3.61605 128.013 2.48005 129.805 1.64805C131.629 0.784051 133.821 0.352051 136.381 0.352051C138.461 0.352051 140.541 0.704051 142.621 1.40805C144.733 2.11205 146.541 3.02405 148.045 4.14405L144.877 9.37605C143.597 8.38405 142.189 7.58405 140.653 6.97605C139.117 6.36805 137.517 6.06405 135.853 6.06405C134.253 6.06405 133.037 6.38405 132.205 7.02405C131.373 7.66405 130.957 8.40005 130.957 9.23205C130.957 9.77605 131.149 10.3041 131.533 10.8161C131.949 11.3281 132.621 11.8401 133.549 12.352C134.509 12.8321 135.821 13.3441 137.485 13.8881C140.237 14.7841 142.445 15.7921 144.109 16.9121C145.773 18.0001 146.973 19.2001 147.709 20.5121C148.477 21.8241 148.861 23.2641 148.861 24.8321C148.861 26.5601 148.381 28.1601 147.421 29.6321C146.461 31.1041 145.005 32.2881 143.053 33.1841C141.101 34.0801 138.685 34.5281 135.805 34.5281C134.269 34.5281 132.717 34.3521 131.149 34.0001C129.613 33.6161 128.125 33.1041 126.685 32.4641C125.277 31.8241 123.949 31.0561 122.701 30.1601Z" fill="#7E23D9"/>
<path d="M94.1638 34.0001V0.880127H100.836V34.0001H94.1638ZM98.7718 26.6561V18.1121L112.452 0.880127H120.756L106.452 17.6321L105.636 18.5921L98.7718 26.6561ZM103.62 19.3601L107.892 14.5121L121.476 34.0001H113.316L103.62 19.3601Z" fill="white"/>
<path d="M61.025 17.4401C61.025 14.7201 61.441 12.3041 62.273 10.1921C63.137 8.08005 64.305 6.30405 65.777 4.86405C67.249 3.39205 68.945 2.27205 70.865 1.50405C72.785 0.736051 74.817 0.352051 76.961 0.352051C79.009 0.352051 80.897 0.67205 82.625 1.31205C84.385 1.92005 86.049 2.83205 87.617 4.04805L83.729 9.18405C82.737 8.41605 81.665 7.80805 80.513 7.36005C79.361 6.88005 78.129 6.64005 76.817 6.64005C75.153 6.64005 73.633 7.04005 72.257 7.84005C70.913 8.64005 69.841 9.85605 69.041 11.4881C68.241 13.0881 67.841 15.0721 67.841 17.4401C67.841 19.8081 68.241 21.8081 69.041 23.4401C69.841 25.0401 70.929 26.2401 72.305 27.0401C73.681 27.8401 75.201 28.2401 76.865 28.2401C78.241 28.2401 79.505 28.0001 80.657 27.5201C81.841 27.0081 82.929 26.3041 83.921 25.4081L87.905 30.4481C86.337 31.7921 84.673 32.8161 82.913 33.5201C81.153 34.1921 79.201 34.5281 77.057 34.5281C74.881 34.5281 72.817 34.1441 70.865 33.3761C68.945 32.6081 67.249 31.5041 65.777 30.0641C64.305 28.5921 63.137 26.8001 62.273 24.6881C61.441 22.5761 61.025 20.1601 61.025 17.4401Z" fill="white"/>
<path d="M27.8818 34.0001L40.1698 0.880127H43.6738L44.0578 7.36013L34.8418 34.0001H27.8818ZM35.4178 26.5601V21.1361H51.5458V26.5601H35.4178ZM42.4258 7.36013L42.6178 0.880127H46.5058L58.7938 34.0001H51.6418L42.4258 7.36013Z" fill="white"/>
<path d="M0.601318 34.0001V0.880127H7.27332V34.0001H0.601318ZM3.76932 34.0001V28.3361H13.1773C14.6493 28.3361 15.8493 27.9681 16.7773 27.2321C17.7053 26.4961 18.1693 25.4401 18.1693 24.0641C18.1693 22.6561 17.7053 21.6001 16.7773 20.8961C15.8493 20.1601 14.6493 19.7921 13.1773 19.7921H3.76932V15.5201H13.7533C15.9613 15.5201 17.8973 15.8881 19.5613 16.6241C21.2573 17.3601 22.5853 18.4321 23.5453 19.8401C24.5373 21.2161 25.0333 22.8641 25.0333 24.7841C25.0333 26.7361 24.5213 28.4001 23.4973 29.7761C22.5053 31.1521 21.1613 32.2081 19.4653 32.9441C17.7693 33.6481 15.8653 34.0001 13.7533 34.0001H3.76932ZM3.76932 18.1601V14.4641H12.2653C13.6413 14.4641 14.7613 14.1281 15.6253 13.4561C16.4893 12.7841 16.9213 11.8081 16.9213 10.5281C16.9213 9.24813 16.4893 8.27213 15.6253 7.60013C14.7613 6.89613 13.6413 6.54413 12.2653 6.54413H3.76932V0.880127H12.6493C14.6973 0.880127 16.5533 1.23213 18.2173 1.93613C19.8813 2.64013 21.1933 3.64813 22.1533 4.96013C23.1133 6.27213 23.5933 7.87213 23.5933 9.76013C23.5933 11.5841 23.1133 13.1201 22.1533 14.3681C21.1933 15.6161 19.8813 16.5601 18.2173 17.2001C16.5853 17.8401 14.7293 18.1601 12.6493 18.1601H3.76932Z" fill="white"/>
</svg>
